<svg version="1.2" xmlns="http://www.w3.org/2000/svg" viewBox="0 0 1281 419" width="1281" height="419">
	<title>Logos-cdr</title>
	<defs>
		<clipPath clipPathUnits="userSpaceOnUse" id="cp1">
			<path d="m-600-218h2480v1594h-2480z"/>
		</clipPath>
	</defs>
	<style>
		.s0 { fill: none;stroke: #2c2e35;stroke-miterlimit:100;stroke-width: 5.1 } 
		.s1 { fill: #ff2e17;stroke: #2c2e35;stroke-miterlimit:100;stroke-width: 2.7 } 
		.s2 { fill: #2c2e35;stroke: #000000;stroke-miterlimit:100;stroke-width: 0 } 
	</style>
	<g id="Page 1" clip-path="url(#cp1)">
		<g id="Group 1">
			<path id="Object 2" class="s0" d="m49.6 310.2l89.4-281.7h103.7l-25.9 79.2 1013.9 1.5-41.8 201h-534l-28.1 95.2h-207.5l25.9-95.2z"/>
			<path id="Object 3" class="s1" d="m282.4 267l-44.7 24.5h-101.6-56.9l77.1-247.2h60.5l-30.3 90.1h48.3l78.6 29.5z"/>
			<path id="Object 4" fill-rule="evenodd" class="s1" d="m434.4 150.3l8.7-20.2 61.9-0.7-49 162.8-61.9-0.7 5-20.2c-10.8 15.1-22.3 24.5-38.9 20.2h-40.4c-30.9 0-24.5-16.6-21.6-29.6l32.4-109.5c5.8-15.8 15.2-22.3 28.9-22.3h51.1c15.2-1.5 23.8 5 23.8 20.2zm-51.1 43.9l-7.3 30.3h39l8.6-30.3z"/>
			<path id="Object 5" fill-rule="evenodd" class="s1" d="m585.8 130.1c11.5-2.2 20.1 1.4 23.7 21.6l6.5-21.6h67.8l-62.7 216.9c-8 28.1-21.7 40.3-42.6 38.9l-134-0.7 16.6-58.4 71.3 0.7c21.6-0.7 31.7-15.8 40.4-44.7-4.3 2.9-7.2 5.8-18.8 8.7h-55.4c-17.3 0-22.4-11.5-16.6-35.3l31.7-108.1c8.6-11.5 15.8-20.9 30.3-18zm-32.5 97.3h37.5l8.6-30.3h-36z"/>
			<path id="Object 6" class="s1" d="m651.3 291.5h63.4l27.4-95.8c23.8-2.9 28.1 10.8 23.1 31.7l-17.3 64.1 67-1.4 33.2-121.8c10-23.1 3.6-35.3-18.1-38.2h-41.8c-13.6 0-26.6 5-35.3 15.8l5.1-15.8h-62z"/>
			<path id="Object 7" class="s1" d="m871.8 130.1h67.8l-23.1 97.3 29.6 0.7 25.2-98h64.8l-30.2 123.9c-2.2 20.2-13.7 32.4-37.5 37.5h-112.4c-17.3 0-22.4-8.7-18.8-33.9z"/>
			<path id="Object 8" class="s1" d="m1203.3 130.1l-9.3 54.7-85.8 0.8-2.9 11.5 68.5 0.7c13 1.5 15.1 7.9 10.8 20.2l-10.8 49.7c-3.6 13-13 23.1-39.7 23.8h-124.6l11.5-51.9h90.8l2.9-12.2-64.1 0.7c-15.2 2.9-21.7-5.1-21.7-23.1l13.7-54c8-18 20.9-20.9 32.5-20.9z"/>
			<path id="Object 9" class="s2" d="m188 171.9l10.8-37.5h-5.8l-25.9 83.6-11.6 0.7v15.9h-7.2v-15.9h-18v-87.9h160.7c17.3-1.4 26 8.6 25.2 26.7l-34.6 119.6c-7.2 10.8-13.6 15.8-28.1 16.6h-121.7l-5.1-54.1h98l-16.6 49.7h7.2l29.6-94.4 51.9 15.9 2.1-5.1z"/>
			<g id="Group 10">
			</g>
		</g>
	</g>
</svg>